<svg xmlns="http://www.w3.org/2000/svg" xmlns:xlink="http://www.w3.org/1999/xlink" viewBox="0 0 38.53 65.2"><defs><style>.cls-1{fill:none;}.cls-2{clip-path:url(#clip-path);}.cls-3{fill:#231f20;}</style><clipPath id="clip-path" transform="translate(-46.82 -47.47)"><rect class="cls-1" width="841.89" height="595.28"/></clipPath></defs><title>Fichier 2</title><g id="Calque_2" data-name="Calque 2"><g id="Calque_1-2" data-name="Calque 1"><g class="cls-2"><path class="cls-3" d="M66.09,112.67a100.72,100.72,0,0,0,10.41-.47H55.67a103.79,103.79,0,0,0,10.42.47" transform="translate(-46.82 -47.47)"/><path class="cls-3" d="M81.15,87.59h0l2-6,2-6.2.16-.49h-.54l-6.25-.05-2.06,0V73.71l.22,0H76.5V70.54c1.58-.05,3.13-.12,4.65-.18h0l2-6,2-6.19.16-.5h-.54l-6.25,0H76.5V52.72a9.25,9.25,0,0,0-4.34-4.06,12.7,12.7,0,0,0-2.93-.95,15.72,15.72,0,0,0-3.06-.23,14.15,14.15,0,0,0-5.94,1.4,11.84,11.84,0,0,0-4.56,3.75v.73h0v4.22H53.61l-6.25,0h-.54l.16.5,2,6.19,2,6h0c1.52.06,3.08.13,4.65.18v3.14h-.22l.22,0V74.8l-2.06,0-6.25.05h-.54l.16.49,2,6.2,2,6h0c1.52.06,3.08.13,4.65.18V90.4l-.22,0h.22V93H53.61l-6.25,0h-.54l.16.5,2,6.19,2,6h0l4.65.18v6.21H76.5V106l4.65-.18h0l2-6,2-6.19.16-.5h-.54l-6.25,0H76.5V90.43h.22l-.22,0V87.77c1.58,0,3.13-.12,4.65-.18" transform="translate(-46.82 -47.47)"/></g></g></g></svg>