<?xml version="1.0" encoding="UTF-8" standalone="no"?><!DOCTYPE svg PUBLIC "-//W3C//DTD SVG 1.1//EN" "http://www.w3.org/Graphics/SVG/1.1/DTD/svg11.dtd"><svg width="100%" height="100%" viewBox="0 0 68 54" version="1.1" xmlns="http://www.w3.org/2000/svg" xmlns:xlink="http://www.w3.org/1999/xlink" xml:space="preserve" xmlns:serif="http://www.serif.com/" style="fill-rule:evenodd;clip-rule:evenodd;stroke-linejoin:round;stroke-miterlimit:2;"><path d="M40.837,38.569c0,0 -1.08,-12.851 -0.864,-13.349c0.214,-0.502 -5.51,12.574 -5.404,12.994c0.111,0.418 -5.764,-13.83 -5.764,-13.83c0,0 -1.732,14.795 -1.518,15.048c0.222,0.249 -6.39,0.085 -6.39,0.085c0,0 2.276,-23.159 2.49,-23.159l6.333,0.685c0,0 4.849,12.782 4.849,13.364c0,0.585 3.784,-13.247 3.784,-13.247c0,0 6.775,-1.489 7.097,-1.655c0.326,-0.169 1.301,23.772 1.301,23.772l-5.914,-0.708Zm14.139,-37.354c-2.9,1.029 -3.65,3.346 -3.475,5.815c-1.178,-0.064 -2.461,-0.117 -3.824,-0.158c-0.426,-0.157 -0.874,-0.341 -1.369,-0.597c-2.984,-1.541 -6.739,-5.584 -9.435,-4.717c-2.019,0.648 -2.688,3.727 -2.896,5.232c-0.315,0.003 -0.631,0.007 -0.946,0.012c-0.206,-1.5 -0.872,-4.594 -2.897,-5.244c-2.696,-0.867 -6.451,3.176 -9.435,4.717c-1.106,0.571 -2.037,0.862 -2.795,1.02c-0.696,0.038 -1.364,0.079 -1.994,0.12c1.373,-2.439 1.875,-5.341 -2.106,-6.754c-7.58,-2.691 -16.311,3.244 -13.133,10.339c3.181,7.092 7.583,10.761 6.116,20.057c-1.468,9.295 -7.766,18.116 -1.896,21.051c5.873,2.935 14.944,2.125 14.699,-2.032c-0.016,-0.273 -0.064,-0.528 -0.134,-0.77c8.435,0.387 20.437,0.765 28.986,0.602c-0.027,0.157 -0.061,0.311 -0.07,0.474c-0.245,4.157 8.071,3.914 13.943,0.977c5.87,-2.935 -0.734,-11.007 -2.201,-20.302c-1.468,-9.296 2.935,-12.965 6.113,-20.057c3.181,-7.095 -3.668,-12.475 -11.251,-9.785" style="fill:#231f20;fill-rule:nonzero;"/></svg>